HIERARCHY
ROOT Hips
{
	OFFSET 0.00000 0.00000 0.00000
	CHANNELS 6 Xposition Yposition Zposition Zrotation Yrotation Xrotation 
	JOINT LHipJoint
	{
		OFFSET 0 0 0
		CHANNELS 3 Zrotation Yrotation Xrotation
		JOINT LeftHip
		{
			OFFSET 1.57358 -1.76629 0.73362
			CHANNELS 3 Zrotation Yrotation Xrotation
			JOINT LeftKnee
			{
				OFFSET 2.40600 -6.61045 0.00000
				CHANNELS 3 Zrotation Yrotation Xrotation
				JOINT LeftAnkle
				{
					OFFSET 2.66168 -7.31291 0.00000
					CHANNELS 3 Zrotation Yrotation Xrotation
					JOINT LeftToe
					{
						OFFSET 0.20870 -0.57341 2.12506
						CHANNELS 3 Zrotation Yrotation Xrotation
						End Site
						{
							OFFSET 0.00000 -0.00000 1.10557
						}
					}
				}
			}
		}
	}
	JOINT RHipJoint
	{
		OFFSET 0 0 0
		CHANNELS 3 Zrotation Yrotation Xrotation
		JOINT RightHip
		{
			OFFSET -1.49299 -1.76629 0.73362
			CHANNELS 3 Zrotation Yrotation Xrotation
			JOINT RightKnee
			{
				OFFSET -2.43663 -6.69460 0.00000
				CHANNELS 3 Zrotation Yrotation Xrotation
				JOINT RightAnkle
				{
					OFFSET -2.62959 -7.22474 0.00000
					CHANNELS 3 Zrotation Yrotation Xrotation
					JOINT RightToe
					{
						OFFSET -0.25784 -0.70841 2.21862
						CHANNELS 3 Zrotation Yrotation Xrotation
						End Site
						{
							OFFSET -0.00000 -0.00000 1.16452
						}
					}
				}
			}
		}
	}
	JOINT lowerback
	{
		OFFSET 0 0 0
		CHANNELS 3 Zrotation Yrotation Xrotation
		JOINT Chest
		{
			OFFSET -0.00034 2.12399 -0.25450
			CHANNELS 3 Zrotation Yrotation Xrotation
			JOINT Chest2
			{
				OFFSET 0.05594 2.14379 -0.03318
				CHANNELS 3 Zrotation Yrotation Xrotation
				JOINT lowerneck
				{
					OFFSET 0 0 0
					CHANNELS 3 Zrotation Yrotation Xrotation
					JOINT Neck
					{
						OFFSET -0.09835 1.62725 0.24211
						CHANNELS 3 Zrotation Yrotation Xrotation
						JOINT Head
						{
							OFFSET 0.10849 1.66041 -0.22648
							CHANNELS 3 Zrotation Yrotation Xrotation
							End Site
							{
								OFFSET 0.04385 1.68267 -0.10541
							}
						}
					}
				}
				JOINT LeftCollar
				{
					OFFSET 0 0 0
					CHANNELS 3 Zrotation Yrotation Xrotation
					JOINT LeftShoulder
					{
						OFFSET 3.29108 0.79398 -0.68179
CHANNELS 3 Zrotation Xrotation Yrotation
						JOINT LeftElbow
						{
OFFSET 0 -5.153100 -0.000000
CHANNELS 3 Zrotation Xrotation Yrotation
							JOINT LeftWrist
							{
OFFSET 0 -3.751380 -0.000000
CHANNELS 3 Zrotation Xrotation Yrotation
								JOINT lhand
								{
									OFFSET 0 0 0
CHANNELS 3 Zrotation Xrotation Yrotation
									JOINT LFingers
									{
OFFSET 0 -0.529170 0.000000
CHANNELS 3 Zrotation Xrotation Yrotation
										End Site
										{
OFFSET 0 -0.426630 0.000000
										}
									}
								}
								JOINT LThumb
								{
OFFSET 0 0.000000 0.000000
CHANNELS 3 Zrotation Xrotation Yrotation
									End Site
									{
OFFSET 0 -0.433150 0.433150
									}
								}
							}
						}
					}
				}
				JOINT RightCollar
				{
					OFFSET 0 0 0
					CHANNELS 3 Zrotation Yrotation Xrotation
					JOINT RightShoulder
					{
						OFFSET -3.07414 1.06285 -0.44338
CHANNELS 3 Zrotation Xrotation Yrotation
						JOINT RightElbow
						{
OFFSET 0 -5.296130 0.000000
CHANNELS 3 Zrotation Xrotation Yrotation
							JOINT RightWrist
							{
OFFSET 0 -3.761440 -0.000000
CHANNELS 3 Zrotation Xrotation Yrotation
								JOINT rhand
								{
									OFFSET 0 0 0
CHANNELS 3 Zrotation Xrotation Yrotation
									JOINT RFingers
									{
OFFSET 0 -0.747320 0.000000
CHANNELS 3 Zrotation Xrotation Yrotation
										End Site
										{
OFFSET 0 -0.602510 0.000000
										}
									}
								}
								JOINT RThumb
								{
OFFSET 0 0.000000 0.000000
CHANNELS 3 Zrotation Xrotation Yrotation
									End Site
									{
OFFSET 0 -0.611710 0.611710
									}
								}
							}
						}
					}
				}
			}
		}
	}
}
MOTION
Frames: 5
Frame Time: 0.008333333333333333
0.580598 17.401379 -8.603827 -3.986871 -2.583053 2.315543 0.000000 0.000000 0.000000 -11.673035 -11.039011 -31.819480 5.589754 14.018212 43.311180 0.193548 4.066110 -10.821081 0.005165 -0.464532 -1.276540 0.000000 0.000000 0.000000 30.584304 4.509070 2.513009 -1.047006 -6.506858 18.262529 -0.713143 -2.208943 -16.900588 -0.050520 1.450728 -3.989873 3.773347 1.461606 7.178933 2.286243 2.350237 0.087724 0.006240 1.114782 -3.881787 -9.787794 -4.528288 -17.152629 6.069382 -5.002817 19.414957 3.053849 -2.404263 9.358625 0.000000 0.000000 0.000000 1.840290 4.657604 -17.271428 12.822494 -21.026536 2.389190 12.711677 17.963129 -27.082551 0.000000 0.000000 0.000000 -7.125000 0.000000 0.000000 -19.071498 56.607765 5.567561 0.000000 0.000000 0.000000 -3.494888 -2.075693 17.141714 -16.775559 -26.561019 -3.986533 -17.515786 5.928536 -11.104005 0.000000 0.000000 0.000000 7.125000 0.000000 0.000000 6.741923 18.396460 4.299600
0.578700 17.390276 -8.435235 -4.200227 -2.769019 2.496294 0.000000 0.000000 0.000000 -11.286938 -11.289863 -32.061884 5.014020 13.398069 40.880205 0.158518 4.484744 -10.511237 0.048136 -1.399403 -3.848644 0.000000 0.000000 0.000000 30.817300 4.266711 3.342778 -0.958593 -6.234079 17.465334 -0.710830 -2.226063 -16.883762 -0.067034 1.669621 -4.593352 3.930607 1.548482 7.101812 2.322777 2.477294 0.051673 -0.054605 1.175065 -3.867866 -9.658361 -4.507272 -17.225124 5.985132 -4.976527 19.273703 3.004399 -2.389161 9.314389 0.000000 0.000000 0.000000 1.695393 4.837889 -16.523390 12.630452 -20.743279 2.320746 12.940105 18.381239 -26.527865 0.000000 0.000000 0.000000 -7.125000 0.000000 0.000000 -18.500496 56.128633 5.175620 0.000000 0.000000 0.000000 -3.652071 -2.289367 17.719210 -17.050456 -26.924248 -4.110244 -16.229583 5.064536 -11.442142 0.000000 0.000000 0.000000 7.125000 0.000000 0.000000 7.643961 18.137441 4.929120
0.580250 17.374852 -8.260883 -4.381866 -2.891799 2.652519 0.000000 0.000000 0.000000 -10.928610 -11.653005 -32.157071 4.455914 12.741012 38.410731 0.116281 4.838458 -9.980561 0.085961 -1.886242 -5.191617 0.000000 0.000000 0.000000 30.990159 3.939273 4.211325 -0.877287 -5.970879 16.700118 -0.711067 -2.194830 -16.870244 -0.065150 1.646455 -4.529589 4.158483 1.671690 6.913770 2.304445 2.645942 0.087744 -0.210210 1.257480 -3.709099 -9.640877 -4.578697 -17.330343 6.055397 -5.082250 19.176014 3.009224 -2.426803 9.310075 0.000000 0.000000 0.000000 1.649489 4.842167 -15.910462 12.422530 -20.435220 2.247727 12.407599 18.825153 -26.525671 0.000000 0.000000 0.000000 -7.125000 0.000000 0.000000 -19.035764 56.019663 5.281622 0.000000 0.000000 0.000000 -3.751120 -2.575250 18.191533 -17.372295 -27.345831 -4.257020 -11.596026 5.884010 -6.470132 0.000000 0.000000 0.000000 7.125000 0.000000 0.000000 11.157441 23.383219 5.882935
0.583226 17.358840 -8.082861 -4.482358 -3.005162 2.865578 0.000000 0.000000 0.000000 -10.647960 -12.061470 -32.240108 3.924547 12.055747 35.934522 0.071004 5.107766 -9.242203 0.080104 -1.825334 -5.023146 0.000000 0.000000 0.000000 31.038977 3.526523 4.980735 -0.804241 -5.723000 15.982885 -0.720550 -2.239148 -16.996890 -0.062516 1.613097 -4.437443 4.253832 1.783089 6.694408 2.310460 2.789903 0.055521 -0.263488 1.328816 -3.610625 -9.645905 -4.586536 -17.409280 6.119074 -5.096681 19.134594 3.029064 -2.425178 9.313079 0.000000 0.000000 0.000000 1.507612 4.806993 -15.170147 12.095755 -19.947855 2.134982 12.191528 19.461838 -26.385485 0.000000 0.000000 0.000000 -7.125000 0.000000 0.000000 -19.168195 55.843950 5.237562 0.000000 0.000000 0.000000 -3.970823 -2.784346 18.555117 -17.720879 -27.798017 -4.418432 -15.273547 3.973795 -10.974093 0.000000 0.000000 0.000000 7.125000 0.000000 0.000000 8.346701 18.661297 5.243421
0.588783 17.342964 -7.910554 -4.461819 -3.172180 3.066369 0.000000 0.000000 0.000000 -10.470443 -12.551300 -32.215855 3.426038 11.349988 33.475207 0.033549 5.316913 -8.547718 0.091136 -1.945836 -5.355941 0.000000 0.000000 0.000000 30.912639 3.044282 5.677197 -0.736952 -5.483567 15.293123 -0.729958 -2.157451 -17.060111 -0.055487 1.519706 -4.180143 4.285809 1.918594 6.616275 2.244795 2.966753 0.023183 -0.363022 1.415562 -3.589218 -9.715105 -4.643463 -17.661528 6.253638 -5.165960 19.224097 3.076042 -2.443959 9.401959 0.000000 0.000000 0.000000 1.410613 4.633130 -14.439918 11.664440 -19.299043 1.990293 12.548658 20.057393 -25.999083 0.000000 0.000000 0.000000 -7.125000 0.000000 0.000000 -18.581101 55.548336 4.934572 0.000000 0.000000 0.000000 -4.186680 -3.194231 18.838804 -17.844026 -27.957009 -4.475914 -17.173525 2.611024 -13.525991 0.000000 0.000000 0.000000 7.125000 0.000000 0.000000 7.005498 15.913987 4.845274
